<svg width="253" height="268" viewBox="0 0 253 268" fill="none" xmlns="http://www.w3.org/2000/svg">
<path d="M237.387 180.147C246.01 180.147 253 187.137 253 195.76V248C253 259.046 244.046 268 233 268H225.204C214.158 268 205.204 259.046 205.204 248V242.012C205.204 230.966 196.25 222.012 185.204 222.012H67.796C56.7503 222.012 47.796 230.966 47.796 242.012V248C47.796 259.046 38.8417 268 27.796 268H20.0727C8.99862 268 0.0326375 259.001 0.0728022 247.927L0.286281 189.069C0.304171 184.136 4.30789 180.147 9.24056 180.147C22.6234 179.724 32.0764 169.998 37.5995 150.968C43.1226 131.938 46.5214 104.768 47.796 69.458L49.638 19.2665C50.0326 8.51348 58.8643 0 69.6245 0H201.773C212.819 0 221.773 8.95431 221.773 20V164.533C221.773 173.156 228.764 180.147 237.387 180.147ZM93.3615 74.2154C92.2993 100.645 90.0689 122.847 86.67 140.819C83.4876 157.449 96.6786 180.147 113.611 180.147H150.791C161.837 180.147 170.791 171.192 170.791 160.147V61.8651C170.791 50.8194 161.837 41.8651 150.791 41.8651H113.735C102.919 41.8651 94.0633 50.4634 93.7439 61.2744L93.3615 74.2154Z" fill="#54789E"/>
</svg>
