<svg width="21" height="19" viewBox="0 0 21 19" fill="none" xmlns="http://www.w3.org/2000/svg">
<path d="M20.5624 7.66656H16.8551L12.1731 0.856256C12.0364 0.657167 11.7642 0.607169 11.5647 0.743463C11.3656 0.880619 11.3152 1.15276 11.4519 1.35185L15.7932 7.66652H5.20672L9.54809 1.35189C9.6848 1.1528 9.63439 0.880619 9.4353 0.743504C9.23707 0.60721 8.96448 0.657208 8.82691 0.856297L4.14483 7.66656H0.437513C0.195685 7.66656 0 7.86224 0 8.10407C0 8.3459 0.195685 8.54158 0.437513 8.54158H0.992576L3.66708 16.9472C3.89951 17.6765 4.56942 18.1666 5.33461 18.1666H15.6654C16.4306 18.1666 17.1005 17.6765 17.3329 16.9468L20.0074 8.54158H20.5625C20.8043 8.54158 21 8.3459 21 8.10407C21 7.86224 20.8043 7.66656 20.5624 7.66656ZM16.4989 16.6814C16.3827 17.0463 16.0477 17.2916 15.6654 17.2916H5.33461C4.95222 17.2916 4.61724 17.0463 4.50105 16.6819L1.91087 8.54154H19.0891L16.4989 16.6814Z" fill="#633176"/>
</svg>
