<svg width="59" height="59" viewBox="0 0 59 59" fill="none" xmlns="http://www.w3.org/2000/svg">
<path d="M43.1981 46.7425V37.2904C43.198 35.8737 42.0454 34.7212 40.6287 34.7212H7.49091C6.07422 34.7212 4.92153 35.8737 4.92153 37.2904V46.7425C3.86022 47.1033 3.09415 48.109 3.09415 49.2908C3.09415 50.7749 4.30157 51.9822 5.78544 51.9822H42.3341C43.8181 51.9822 45.0254 50.7748 45.0254 49.2908C45.0255 48.109 44.2594 47.1033 43.1981 46.7425ZM6.64947 37.2903C6.64947 36.8264 7.02686 36.449 7.49091 36.449H40.6287C41.0927 36.449 41.4702 36.8264 41.4702 37.2903V46.5994H6.64947V37.2903ZM42.334 50.2543H5.78556C5.25444 50.2543 4.8222 49.822 4.8222 49.2908C4.8222 48.7597 5.25444 48.3275 5.78556 48.3275H42.3342C42.8653 48.3275 43.2976 48.7597 43.2976 49.2908C43.2974 49.822 42.8653 50.2543 42.334 50.2543Z" fill="white"/>
<path d="M44.9097 38.0341H44.1587V39.7621H44.9097C45.8867 39.7621 45.8867 39.9957 45.8867 40.319V51.8663C45.8867 52.6537 45.357 53.5856 44.9097 53.5856H3.20996C2.6997 53.5856 1.99677 52.5894 1.99677 51.8663V40.3191C1.99677 40.1384 1.99677 39.7622 3.20996 39.7622H3.95518V38.0343H3.20996C2.44146 38.0343 1.80917 38.1727 1.3306 38.4455C0.645876 38.8359 0.268829 39.5014 0.268829 40.3194V51.8666C0.268829 52.5926 0.567517 53.4238 1.06786 54.0899C1.65199 54.8678 2.43293 55.3139 3.21007 55.3139H3.95529V59H5.68323V55.3137H43.2374V59H44.9654V55.3116C46.6717 55.2685 47.6149 53.2602 47.6149 51.8664V40.3191C47.6146 39.4657 47.2631 38.0341 44.9097 38.0341Z" fill="white"/>
<path d="M11.3273 39.8777H9.48413V41.6056H11.3273V39.8777Z" fill="white"/>
<path d="M38.7441 39.8777H36.7858V41.6056H38.7441V39.8777Z" fill="white"/>
<path d="M25.0357 39.8777H23.1925V41.6056H25.0357V39.8777Z" fill="white"/>
<path d="M0.352966 20.0022H28.5786V0H0.352966V20.0022ZM2.08091 1.72794H26.8506V18.2742H2.08091V1.72794Z" fill="white"/>
<path d="M3.09415 2.74109V17.2611H25.8375V2.74109H3.09415ZM24.1096 15.5331H4.82209V4.46903H24.1094V15.5331H24.1096Z" fill="white"/>
<path d="M29.5918 20.1017V32.7942H45.9392V20.1017H29.5918ZM44.2113 31.0663H31.3198V21.8297H44.2113V31.0663Z" fill="white"/>
<path d="M32.3328 22.8428V30.053H43.1979V22.8428H32.3328ZM41.4701 28.3251H34.0609V24.5709H41.4701V28.3251Z" fill="white"/>
<path d="M37.7655 3.65488C33.7623 3.65488 30.5056 6.91163 30.5056 10.9148C30.5056 14.918 33.7624 18.1746 37.7655 18.1746C41.7687 18.1746 45.0254 14.9178 45.0254 10.9148C45.0255 6.91163 41.7688 3.65488 37.7655 3.65488ZM38.6293 16.3791V15.4557H36.9014V16.3789C34.5772 16.0127 32.7306 14.194 32.3204 11.8846H33.3303V10.1565H32.2867C32.6187 7.7472 34.5067 5.82797 36.9014 5.45069V6.70052H38.6293V5.4508C41.0241 5.82797 42.9124 7.74731 43.2442 10.1566H42.0852V11.8846H43.2107C42.8005 14.1941 40.9537 16.013 38.6293 16.3791Z" fill="white"/>
<path d="M36.9014 8.083V10.1565H34.0215V11.8845H38.6293V8.083H36.9014Z" fill="white"/>
<path d="M54.1809 54.4773V54.4772V34.1174H52.453V54.4772H47.8661V58.9462H58.731V54.4772H54.1809V54.4773ZM57.0032 57.2184H49.5941V56.2052H57.0032V57.2184Z" fill="white"/>
<path d="M49.6935 11.8782V31.8804H52.4529V33.311H54.1808V31.8805H56.9037V11.8782H49.6935ZM55.1758 27.436H52.453V29.164H55.1758V30.1526H51.4215V13.6062H55.1758V27.436Z" fill="white"/>
<path d="M12.4841 6.6494L10.6567 8.47672L11.8786 9.69854L13.7059 7.87122L12.4841 6.6494Z" fill="white"/>
<path d="M17.0526 5.73541L10.6567 12.1313L11.8785 13.3531L18.2744 6.95723L17.0526 5.73541Z" fill="white"/>
<path d="M17.0522 10.3045L15.2249 12.1318L16.4467 13.3536L18.2741 11.5263L17.0522 10.3045Z" fill="white"/>
</svg>
