<svg width="59" height="59" viewBox="0 0 59 59" fill="none" xmlns="http://www.w3.org/2000/svg">
<g clip-path="url(#clip0)">
<path d="M58.1206 32.4L56.805 30.2857C56.5036 29.8011 56.5036 29.199 56.805 28.7143L58.1206 26.5999C58.9758 25.2255 58.6602 23.4356 57.3865 22.4365L55.427 20.8995C54.978 20.5473 54.772 19.9815 54.8897 19.423L55.4027 16.986C55.7362 15.402 54.8275 13.8279 53.2889 13.3247L50.9219 12.5505C50.3794 12.3731 49.9925 11.9119 49.9119 11.3469L49.5606 8.88146C49.3323 7.27889 47.937 6.11249 46.322 6.16389L43.833 6.24593C43.2622 6.26518 42.7411 5.96361 42.4722 5.46027L41.2987 3.26367C40.536 1.83591 38.8281 1.21422 37.326 1.81771L35.0152 2.74615C34.4856 2.95876 33.8927 2.85436 33.4679 2.47328L31.6138 0.810674C30.4087 -0.270225 28.5913 -0.270225 27.3861 0.810674L25.5322 2.47351C25.1074 2.85459 24.5146 2.9591 23.9849 2.74627L21.6741 1.81782C20.172 1.21457 18.4641 1.83603 17.7014 3.26378L16.5279 5.46027C16.259 5.96361 15.7379 6.26472 15.1671 6.24593L12.6781 6.16389C11.059 6.11238 9.66781 7.27889 9.43953 8.88146L9.08818 11.3469C9.00763 11.9119 8.62067 12.3732 8.07815 12.5505L5.71123 13.3247C4.17262 13.8279 3.26389 15.4019 3.59737 16.986L4.1104 19.423C4.22794 19.9815 4.02201 20.5472 3.57294 20.8995L1.6135 22.4365C0.339813 23.4356 0.0241856 25.2255 0.87934 26.5999L2.19497 28.7143C2.49642 29.1989 2.49642 29.801 2.19497 30.2857L0.879455 32.4001C0.0243008 33.7745 0.339928 35.5644 1.61361 36.5635L3.57306 38.1006C4.02213 38.4528 4.22805 39.0186 4.1104 39.5771L3.59737 42.0141C3.26389 43.5981 4.17262 45.1722 5.71123 45.6754L8.07815 46.4496C8.62067 46.6271 9.00763 47.0882 9.08818 47.6532L9.43953 50.1187C9.66792 51.7213 11.0636 52.8874 12.6781 52.8362L15.1671 52.7542C15.7384 52.736 16.259 53.0364 16.5279 53.5398L17.7014 55.7364C18.4641 57.1642 20.1721 57.7859 21.6741 57.1824L23.9849 56.254C24.5144 56.0411 25.1073 56.1456 25.5322 56.5268L27.3861 58.1896C27.9888 58.7299 28.7443 59 29.5 59C30.2556 59 31.0114 58.7298 31.6138 58.1893L33.4677 56.5265C33.8926 56.1454 34.4857 56.0409 35.0151 56.2537L37.3259 57.1822C38.8281 57.7855 40.536 57.1641 41.2986 55.7362L42.472 53.5397C42.741 53.0363 43.2615 52.7354 43.8328 52.7541L46.3219 52.8361C47.9398 52.8888 49.3322 51.7211 49.5605 50.1185L49.9118 47.6531C49.9924 47.0881 50.3793 46.6268 50.9218 46.4495L53.2887 45.6753C54.8274 45.1721 55.7361 43.5981 55.4026 42.014L54.8896 39.577C54.772 39.0185 54.978 38.4528 55.427 38.1005L57.3865 36.5634C58.6602 35.5643 58.9758 33.7744 58.1206 32.4ZM56.3503 35.2427L54.391 36.7797C53.4349 37.5295 52.9965 38.734 53.2468 39.923L53.7598 42.3599C53.9165 43.1041 53.4896 43.8435 52.7668 44.0798L50.3999 44.8539C49.2451 45.2317 48.4212 46.2136 48.2499 47.4163L47.8985 49.8817C47.7913 50.6346 47.137 51.1834 46.3772 51.1583L43.8882 51.0763C42.6725 51.037 41.5638 51.6771 40.9914 52.7488L39.818 54.9452C39.4597 55.6159 38.6574 55.9081 37.9517 55.6246L35.6409 54.6961C34.5136 54.2434 33.2513 54.4658 32.3469 55.277L30.493 56.9398C29.9269 57.4476 29.0732 57.4476 28.5071 56.9398L26.6532 55.2771C26.0587 54.7439 25.31 54.4651 24.5463 54.4651C24.1479 54.4651 23.7455 54.541 23.359 54.6962L21.0482 55.6247C20.3425 55.9081 19.5403 55.6161 19.182 54.9455L18.0086 52.7489C17.4361 51.6773 16.3244 51.0377 15.1118 51.0764L12.6228 51.1584C11.8615 51.1831 11.2087 50.6347 11.1014 49.8818L10.7501 47.4164C10.5787 46.2136 9.75481 45.2318 8.60004 44.8541L6.23313 44.0799C5.51038 43.8436 5.08355 43.1041 5.24016 42.36L5.75318 39.9231C6.00347 38.7342 5.56512 37.5298 4.60913 36.7799L2.64969 35.2429C2.05139 34.7736 1.9032 33.9327 2.3049 33.2871L3.62054 31.1726C4.26239 30.1411 4.26239 28.8593 3.62054 27.8277L2.3049 25.7133C1.9032 25.0676 2.0515 24.2269 2.64969 23.7575L4.60902 22.2205C5.56512 21.4707 6.00347 20.2663 5.75318 19.0773L5.24016 16.6404C5.08344 15.8962 5.51038 15.1569 6.23313 14.9205L8.60004 14.1464C9.75492 13.7687 10.5787 12.7868 10.7501 11.5841L11.1014 9.11861C11.2087 8.36578 11.8626 7.81854 12.6228 7.84205L15.1118 7.92409C16.3254 7.96223 17.4361 7.32314 18.0086 6.25158L19.182 4.0551C19.5404 3.38443 20.3425 3.0922 21.0482 3.37579L23.359 4.30423C24.4864 4.75699 25.7485 4.53459 26.6531 3.72334L28.507 2.06051C29.073 1.55278 29.9268 1.55278 30.4929 2.06051L32.3467 3.72322C33.2512 4.53447 34.5135 4.75699 35.6408 4.30412L37.9516 3.37568C38.657 3.09197 39.4595 3.3842 39.8178 4.05487L40.9913 6.25146C41.5638 7.32303 42.6743 7.96316 43.888 7.92398L46.3771 7.84193C47.1365 7.81715 47.7911 8.36555 47.8984 9.1185L48.2498 11.5839C48.4211 12.7868 49.2451 13.7685 50.3998 14.1463L52.7667 14.9204C53.4895 15.1568 53.9163 15.8962 53.7597 16.6403L53.2467 19.0772C52.9964 20.266 53.4347 21.4705 54.3907 22.2203L56.3502 23.7573C56.9485 24.2266 57.0967 25.0675 56.695 25.7132L55.3793 27.8276C54.7375 28.8592 54.7375 30.1409 55.3793 31.1725L56.695 33.2869C57.0969 33.9326 56.9486 34.7734 56.3503 35.2427Z" fill="white"/>
<path d="M50.9813 31.598C50.5217 31.5352 50.0991 31.8575 50.0366 32.3168C49.3681 37.2381 46.9358 41.7653 43.1873 45.0645C39.4051 48.3933 34.5442 50.2264 29.5 50.2264C24.4558 50.2264 19.5948 48.3931 15.8127 45.0644C12.0642 41.7653 9.63187 37.2381 8.96339 32.3167C8.90105 31.8574 8.47791 31.5354 8.0187 31.5978C7.55938 31.6602 7.23753 32.0832 7.29999 32.5425C8.02274 37.8641 10.6522 42.7586 14.7037 46.3245C18.7925 49.9231 24.0473 51.905 29.5001 51.905C34.9529 51.905 40.2077 49.9231 44.2966 46.3245C48.3481 42.7586 50.9775 37.8641 51.7003 32.5425C51.7626 32.0833 51.4407 31.6603 50.9813 31.598Z" fill="white"/>
<path d="M51.6969 26.4329C50.9689 21.1169 48.3376 16.2283 44.2877 12.6677C40.2002 9.07402 34.9485 7.09487 29.5 7.09487C24.0502 7.09487 18.7975 9.07483 14.7097 12.67C10.6593 16.2323 8.02862 21.1227 7.30219 26.4403C7.2395 26.8996 7.56089 27.3229 8.02021 27.3857C8.0587 27.391 8.09707 27.3935 8.13487 27.3935C8.54798 27.3935 8.90798 27.0884 8.96548 26.6677C9.63718 21.7498 12.0709 17.2264 15.8182 13.9307C19.5995 10.6051 24.4585 8.77361 29.5 8.77361C34.5402 8.77361 39.3984 10.6042 43.1793 13.9284C46.9261 17.2226 49.3604 21.7444 50.0336 26.6606C50.0965 27.12 50.52 27.4418 50.9791 27.3784C51.4384 27.3155 51.7597 26.8923 51.6969 26.4329Z" fill="white"/>
<path d="M36.4433 28.4523C33.8787 28.4523 31.9469 29.5514 31.9469 32.5491V37.4786C31.9469 40.4762 33.8787 41.5754 36.4433 41.5754C38.9747 41.5754 40.9398 40.4762 40.9398 37.4786V32.5491C40.9398 29.5514 38.9747 28.4523 36.4433 28.4523ZM38.5417 37.4786C38.5417 38.8442 37.7423 39.4437 36.4433 39.4437C35.1444 39.4437 34.3782 38.8442 34.3782 37.4786V32.5491C34.3782 31.1835 35.1444 30.584 36.4433 30.584C37.7423 30.584 38.5417 31.1835 38.5417 32.5491V37.4786Z" fill="white"/>
<path d="M21.7216 17.1277C19.1569 17.1277 17.225 18.227 17.225 21.2246V26.1541C17.225 29.1518 19.1569 30.2509 21.7216 30.2509C24.2528 30.2509 26.218 29.1518 26.218 26.1541V21.2246C26.218 18.227 24.2528 17.1277 21.7216 17.1277ZM23.8199 26.1541C23.8199 27.5197 23.0205 28.1191 21.7216 28.1191C20.4225 28.1191 19.6565 27.5197 19.6565 26.1541V21.2246C19.6565 19.8589 20.4225 19.2595 21.7216 19.2595C23.0205 19.2595 23.8199 19.8589 23.8199 21.2246V26.1541Z" fill="white"/>
<path d="M35.1444 15.8288C34.7447 15.8288 34.345 15.9953 34.1451 16.4283L21.9213 40.9092C21.8214 41.0758 21.7881 41.2424 21.7881 41.4089C21.7881 42.0083 22.321 42.6412 23.0871 42.6412C23.5534 42.6412 24.0197 42.4081 24.2196 42.0083L36.4433 17.6274C36.5099 17.4608 36.5432 17.2943 36.5432 17.0944C36.5432 16.3284 35.8106 15.8288 35.1444 15.8288Z" fill="white"/>
</g>
<defs>
<clipPath id="clip0">
<rect width="59" height="59" fill="white"/>
</clipPath>
</defs>
</svg>
