<svg width="11" height="11" viewBox="0 0 11 11" fill="none" xmlns="http://www.w3.org/2000/svg">
<path d="M4.87645 3.58964C4.89656 3.62986 4.91667 3.67008 4.93677 3.70024C4.95688 3.73041 4.98705 3.76057 5.00716 3.79074C5.03732 3.8209 5.06749 3.85107 5.10771 3.88123C5.13787 3.90134 5.17809 3.93151 5.22837 3.94156C5.26858 3.96167 5.3088 3.97172 5.35908 3.98178C5.40935 3.99183 5.44957 3.99183 5.48979 3.99183C5.53001 3.99183 5.58029 3.99183 5.6205 3.98178C5.66072 3.97172 5.70094 3.96167 5.73111 3.94156H5.74116C5.78138 3.92145 5.8216 3.90134 5.86182 3.87118C5.89198 3.85107 5.92215 3.8209 5.95231 3.79074L5.96237 3.78068C5.99253 3.75052 6.01264 3.72035 6.03275 3.69019C6.05286 3.66002 6.07297 3.62986 6.08303 3.58964C6.08303 3.57959 6.08303 3.57959 6.09308 3.56953C6.11319 3.52931 6.12325 3.47904 6.1333 3.43882C6.14336 3.3986 6.14336 3.34832 6.14336 3.30811C6.14336 3.26789 6.14336 3.21761 6.1333 3.17739C6.12325 3.13717 6.11319 3.09695 6.09308 3.04668C6.06292 2.9763 6.0227 2.91597 5.97242 2.86569C5.96237 2.85564 5.96237 2.85564 5.95231 2.84558C5.92215 2.81542 5.89199 2.79531 5.85177 2.76514C5.81155 2.74503 5.78138 2.72492 5.74116 2.70482C5.70094 2.68471 5.66072 2.67465 5.6205 2.6646C5.57023 2.65454 5.53001 2.65454 5.48979 2.65454C5.44957 2.65454 5.3993 2.65454 5.35908 2.6646C5.31886 2.67465 5.27864 2.68471 5.23842 2.70482H5.22837C5.18815 2.72492 5.14793 2.74503 5.11776 2.76514C5.07754 2.79531 5.04738 2.81542 5.01721 2.84558C4.98705 2.87575 4.95688 2.90591 4.93677 2.93608C4.91667 2.96624 4.89656 3.00646 4.87645 3.04668C4.85634 3.0869 4.84628 3.12712 4.83623 3.16734C4.82617 3.21761 4.82617 3.25783 4.82617 3.29805C4.82617 3.33827 4.82617 3.38854 4.83623 3.42876C4.84628 3.5092 4.86639 3.54942 4.87645 3.58964Z" fill="#633176"/>
<path d="M6.27472 7.26967H6.04345V4.80623C6.04345 4.66546 5.93285 4.5448 5.78203 4.5448H4.72627C4.5855 4.5448 4.46484 4.6554 4.46484 4.80623V5.34919C4.46484 5.48996 4.57545 5.61061 4.72627 5.61061H4.93742V7.27972H4.72627C4.5855 7.27972 4.46484 7.39032 4.46484 7.54115V8.08411C4.46484 8.22488 4.57545 8.34553 4.72627 8.34553H6.27472C6.41548 8.34553 6.53614 8.23493 6.53614 8.08411V7.54115C6.53614 7.39032 6.41548 7.26967 6.27472 7.26967Z" fill="#633176"/>
<path d="M5.5 0C2.46344 0 0 2.46344 0 5.5C0 8.53656 2.46344 11 5.5 11C8.53656 11 11 8.53656 11 5.5C11 2.46344 8.53656 0 5.5 0ZM5.5 10.2761C2.86563 10.2761 0.723949 8.13437 0.723949 5.5C0.723949 2.86563 2.86563 0.723949 5.5 0.723949C8.13437 0.723949 10.2761 2.86563 10.2761 5.5C10.2761 8.13437 8.13437 10.2761 5.5 10.2761Z" fill="#633176"/>
</svg>
