<svg width="59" height="51" viewBox="0 0 59 51" fill="none" xmlns="http://www.w3.org/2000/svg">
<path d="M58.9549 38.3193C58.5042 33.6392 55.8359 21.5241 55.0183 17.8758C56.4227 17.2531 57.4053 15.8466 57.4053 14.214V14.0758C57.4053 11.8679 55.609 10.0716 53.4011 10.0716H40.4959C40.8479 9.2636 41.0345 8.38585 41.0345 7.48423C41.0345 3.90681 38.1241 0.996399 34.5467 0.996399C32.3178 0.996399 30.3481 2.12638 29.1797 3.84334C27.9956 2.25983 26.1061 1.2328 23.9811 1.2328C20.4037 1.2328 17.4931 4.14321 17.4931 7.72062C17.4931 8.5349 17.6442 9.33002 17.9328 10.0716H5.59937C3.39141 10.0716 1.59502 11.8679 1.59502 14.0758V14.214C1.59502 15.8466 2.57761 17.2531 3.98205 17.8758C3.16471 21.5241 0.496362 33.6393 0.0456693 38.3193C-0.225243 41.1319 0.724132 43.8902 2.71862 46.0861C4.94667 48.539 8.26878 50.0035 11.6052 50.0035H47.3955C50.7319 50.0035 54.054 48.5391 56.2821 46.0861C58.2764 43.8904 59.2258 41.1321 58.9549 38.3193ZM34.5467 3.4787C36.7553 3.4787 38.5523 5.27568 38.5523 7.48434C38.5523 8.4375 38.2164 9.34834 37.6026 10.0717H31.4909C30.8772 9.34834 30.5411 8.4375 30.5411 7.48434C30.541 5.27556 32.338 3.4787 34.5467 3.4787ZM4.07732 14.076C4.07732 13.2367 4.76016 12.554 5.59949 12.554H20.1587C20.6537 12.554 21.1014 12.2598 21.2979 11.8055C21.4943 11.3511 21.402 10.8235 21.0629 10.4628C20.3616 9.71701 19.9754 8.74316 19.9754 7.72086C19.9754 5.51208 21.7724 3.71521 23.9812 3.71521C26.1899 3.71521 27.9869 5.51219 27.9869 7.72086C27.9869 8.74316 27.6007 9.71701 26.8994 10.4628C26.5603 10.8235 26.468 11.3512 26.6644 11.8055C26.8609 12.2598 27.3086 12.554 27.8037 12.554H53.4012C54.2405 12.554 54.9232 13.2367 54.9232 14.076V14.2141C54.9232 15.0533 54.2404 15.7361 53.4012 15.7361H5.59937C4.76004 15.7361 4.0772 15.0533 4.0772 14.2141V14.076H4.07732ZM54.4447 44.4173C52.6791 46.361 50.0439 47.5213 47.3955 47.5213H11.6051C8.95658 47.5213 6.32133 46.361 4.55591 44.4173C3.03776 42.7458 2.31344 40.6647 2.51638 38.5572C2.9562 33.9907 5.70492 21.5423 6.44969 18.2182H45.4588C46.2036 21.5423 48.9524 33.9906 49.3921 38.5572C49.4539 39.199 49.9942 39.6795 50.626 39.6795C50.6657 39.6795 50.706 39.6775 50.7464 39.6737C51.4287 39.608 51.9286 39.0016 51.8628 38.3194C51.4254 33.7764 48.8983 22.2281 48.0028 18.2182H52.5508C53.2955 21.5423 56.0444 33.9907 56.4841 38.5572C56.6871 40.6647 55.9628 42.7458 54.4447 44.4173Z" fill="white"/>
</svg>
