<svg width="11" height="11" viewBox="0 0 11 11" fill="none" xmlns="http://www.w3.org/2000/svg">
<path d="M5.4999 0C3.30323 0 1.51611 1.78711 1.51611 3.98376C1.51611 6.70987 5.08121 10.712 5.233 10.881C5.37557 11.0398 5.62448 11.0395 5.7668 10.881C5.91858 10.712 9.48368 6.70987 9.48368 3.98376C9.48363 1.78711 7.69654 0 5.4999 0ZM5.4999 10.0918C4.30006 8.6666 2.23352 5.85475 2.23352 3.9838C2.23352 2.18268 3.6988 0.717406 5.4999 0.717406C7.30099 0.717406 8.76627 2.18268 8.76627 3.98378C8.76625 5.85481 6.70003 8.66615 5.4999 10.0918Z" fill="#633176"/>
<path d="M5.49993 1.97949C4.39473 1.97949 3.49561 2.87863 3.49561 3.98383C3.49561 5.08903 4.39475 5.98818 5.49993 5.98818C6.6051 5.98818 7.50422 5.08903 7.50422 3.98383C7.50422 2.87863 6.6051 1.97949 5.49993 1.97949ZM5.49993 5.27077C4.7903 5.27077 4.21301 4.69346 4.21301 3.98383C4.21301 3.27421 4.79032 2.6969 5.49993 2.6969C6.20953 2.6969 6.78684 3.27421 6.78684 3.98383C6.78684 4.69346 6.20953 5.27077 5.49993 5.27077Z" fill="#633176"/>
</svg>
