<svg width="34" height="24" viewBox="0 0 34 24" fill="none" xmlns="http://www.w3.org/2000/svg">
<path d="M31.0625 0.75H2.9375C2.19185 0.750893 1.477 1.0475 0.949749 1.57475C0.422496 2.102 0.125893 2.81685 0.125 3.5625V20.4375C0.125893 21.1831 0.422496 21.898 0.949749 22.4253C1.477 22.9525 2.19185 23.2491 2.9375 23.25H31.0625C31.8081 23.2491 32.523 22.9525 33.0503 22.4253C33.5775 21.898 33.8741 21.1831 33.875 20.4375V3.5625C33.8741 2.81685 33.5775 2.102 33.0503 1.57475C32.523 1.0475 31.8081 0.750893 31.0625 0.75ZM32.75 20.4375C32.75 20.8851 32.5722 21.3143 32.2557 21.6307C31.9393 21.9472 31.5101 22.125 31.0625 22.125H2.9375C2.48995 22.125 2.06072 21.9472 1.74426 21.6307C1.42779 21.3143 1.25 20.8851 1.25 20.4375V3.5625C1.25 3.11495 1.42779 2.68572 1.74426 2.36926C2.06072 2.05279 2.48995 1.875 2.9375 1.875H31.0625C31.5101 1.875 31.9393 2.05279 32.2557 2.36926C32.5722 2.68572 32.75 3.11495 32.75 3.5625V20.4375Z" fill="#333333"/>
<path d="M9.6875 4.125H5.1875C4.73995 4.125 4.31072 4.30279 3.99426 4.61926C3.67779 4.93572 3.5 5.36495 3.5 5.8125V9.1875C3.5 9.63505 3.67779 10.0643 3.99426 10.3807C4.31072 10.6972 4.73995 10.875 5.1875 10.875H9.6875C10.1351 10.875 10.5643 10.6972 10.8807 10.3807C11.1972 10.0643 11.375 9.63505 11.375 9.1875V5.8125C11.375 5.36495 11.1972 4.93572 10.8807 4.61926C10.5643 4.30279 10.1351 4.125 9.6875 4.125ZM10.25 5.8125V6.9375H9.125V5.25H9.6875C9.83668 5.25 9.97976 5.30926 10.0852 5.41475C10.1907 5.52024 10.25 5.66332 10.25 5.8125ZM6.875 6.9375V5.25H8V6.9375H6.875ZM5.1875 5.25H5.75V6.9375H4.625V5.8125C4.625 5.66332 4.68426 5.52024 4.78975 5.41475C4.89524 5.30926 5.03832 5.25 5.1875 5.25ZM4.625 9.1875V8.0625H6.875V9.75H5.1875C5.03832 9.75 4.89524 9.69074 4.78975 9.58525C4.68426 9.47976 4.625 9.33668 4.625 9.1875ZM10.25 9.1875C10.25 9.33668 10.1907 9.47976 10.0852 9.58525C9.97976 9.69074 9.83668 9.75 9.6875 9.75H8V8.0625H10.25V9.1875Z" fill="#333333"/>
<path d="M27.1249 4.12501C26.4175 4.12563 25.7284 4.34988 25.1562 4.7657C24.6523 4.40116 24.0576 4.18291 23.4376 4.13503C22.8176 4.08715 22.1964 4.21151 21.6426 4.49437C21.0888 4.77723 20.6239 5.20761 20.2992 5.73799C19.9745 6.26838 19.8027 6.87815 19.8027 7.50001C19.8027 8.12188 19.9745 8.73165 20.2992 9.26204C20.6239 9.79242 21.0888 10.2228 21.6426 10.5057C22.1964 10.7885 22.8176 10.9129 23.4376 10.865C24.0576 10.8171 24.6523 10.5989 25.1562 10.2343C25.5878 10.5466 26.0872 10.7523 26.6135 10.8345C27.1399 10.9168 27.6782 10.8733 28.1845 10.7075C28.6908 10.5418 29.1507 10.2586 29.5265 9.88099C29.9024 9.50342 30.1835 9.04224 30.3469 8.53518C30.5103 8.02812 30.5513 7.48958 30.4667 6.96362C30.382 6.43765 30.174 5.9392 29.8597 5.50903C29.5455 5.07886 29.1338 4.7292 28.6585 4.48865C28.1832 4.2481 27.6576 4.12349 27.1249 4.12501ZM20.9374 7.50001C20.9368 7.10083 21.0426 6.70869 21.2439 6.36397C21.4452 6.01924 21.7347 5.73437 22.0826 5.53867C22.4305 5.34296 22.8243 5.24349 23.2234 5.2505C23.6226 5.2575 24.0126 5.37072 24.3535 5.57851C23.9605 6.14224 23.7499 6.81287 23.7499 7.50001C23.7499 8.18716 23.9605 8.85779 24.3535 9.42151C24.0126 9.6293 23.6226 9.74253 23.2234 9.74953C22.8243 9.75653 22.4305 9.65707 22.0826 9.46136C21.7347 9.26566 21.4452 8.98079 21.2439 8.63606C21.0426 8.29133 20.9368 7.8992 20.9374 7.50001ZM27.1249 9.75001C26.6799 9.75001 26.2449 9.61805 25.8749 9.37082C25.5049 9.12359 25.2165 8.77218 25.0462 8.36105C24.8759 7.94992 24.8313 7.49752 24.9181 7.06106C25.005 6.6246 25.2192 6.22369 25.5339 5.90902C25.8486 5.59436 26.2495 5.38006 26.6859 5.29325C27.1224 5.20643 27.5748 5.25099 27.9859 5.42128C28.3971 5.59158 28.7485 5.87997 28.9957 6.24998C29.2429 6.61999 29.3749 7.05501 29.3749 7.50001C29.3749 8.09675 29.1378 8.66905 28.7159 9.091C28.2939 9.51296 27.7216 9.75001 27.1249 9.75001Z" fill="#333333"/>
<path d="M9.125 18.75H4.625C4.47582 18.75 4.33274 18.6907 4.22725 18.5852C4.12176 18.4798 4.0625 18.3367 4.0625 18.1875V15.9375C4.0625 15.7883 4.12176 15.6452 4.22725 15.5398C4.33274 15.4343 4.47582 15.375 4.625 15.375H9.125C9.27418 15.375 9.41726 15.4343 9.52275 15.5398C9.62824 15.6452 9.6875 15.7883 9.6875 15.9375V18.1875C9.6875 18.3367 9.62824 18.4798 9.52275 18.5852C9.41726 18.6907 9.27418 18.75 9.125 18.75ZM5.1875 17.625H8.5625V16.5H5.1875V17.625Z" fill="#333333"/>
<path d="M15.875 18.75H11.375C11.2258 18.75 11.0827 18.6907 10.9773 18.5852C10.8718 18.4798 10.8125 18.3367 10.8125 18.1875V15.9375C10.8125 15.7883 10.8718 15.6452 10.9773 15.5398C11.0827 15.4343 11.2258 15.375 11.375 15.375H15.875C16.0242 15.375 16.1673 15.4343 16.2727 15.5398C16.3782 15.6452 16.4375 15.7883 16.4375 15.9375V18.1875C16.4375 18.3367 16.3782 18.4798 16.2727 18.5852C16.1673 18.6907 16.0242 18.75 15.875 18.75ZM11.9375 17.625H15.3125V16.5H11.9375V17.625Z" fill="#333333"/>
<path d="M22.625 18.75H18.125C17.9758 18.75 17.8327 18.6907 17.7273 18.5852C17.6218 18.4798 17.5625 18.3367 17.5625 18.1875V15.9375C17.5625 15.7883 17.6218 15.6452 17.7273 15.5398C17.8327 15.4343 17.9758 15.375 18.125 15.375H22.625C22.7742 15.375 22.9173 15.4343 23.0227 15.5398C23.1282 15.6452 23.1875 15.7883 23.1875 15.9375V18.1875C23.1875 18.3367 23.1282 18.4798 23.0227 18.5852C22.9173 18.6907 22.7742 18.75 22.625 18.75ZM18.6875 17.625H22.0625V16.5H18.6875V17.625Z" fill="#333333"/>
<path d="M29.375 18.75H24.875C24.7258 18.75 24.5827 18.6907 24.4773 18.5852C24.3718 18.4798 24.3125 18.3367 24.3125 18.1875V15.9375C24.3125 15.7883 24.3718 15.6452 24.4773 15.5398C24.5827 15.4343 24.7258 15.375 24.875 15.375H29.375C29.5242 15.375 29.6673 15.4343 29.7727 15.5398C29.8782 15.6452 29.9375 15.7883 29.9375 15.9375V18.1875C29.9375 18.3367 29.8782 18.4798 29.7727 18.5852C29.6673 18.6907 29.5242 18.75 29.375 18.75ZM25.4375 17.625H28.8125V16.5H25.4375V17.625Z" fill="#333333"/>
</svg>
