<svg width="36" height="36" viewBox="0 0 36 36" fill="none" xmlns="http://www.w3.org/2000/svg">
<path d="M35.8192 16.7702H34.092V8.82485C34.092 6.92002 32.5424 5.37038 30.6375 5.37038H28.2982L25.9042 1.0661C25.5393 0.408293 24.845 0 24.0919 0C23.7409 0 23.3927 0.0905168 23.0853 0.261123L13.8977 5.37027H3.63514C1.73031 5.37027 0.180664 6.91991 0.180664 8.82474V32.5454C0.180664 34.4502 1.73031 35.9999 3.63514 35.9999H30.6375C32.5424 35.9999 34.092 34.4502 34.092 32.5454V25.5791H35.8192V16.7702ZM30.6375 6.7521C31.7015 6.7521 32.5706 7.56041 32.6874 8.59469H30.091L29.067 6.7521H30.6375ZM23.7575 1.4688C24.0815 1.28712 24.5175 1.41419 24.6964 1.73691L28.5102 8.59404H10.9435L23.7575 1.4688ZM32.7102 32.5454C32.7102 33.6882 31.7802 34.6182 30.6374 34.6182H3.63514C2.49239 34.6182 1.56239 33.6882 1.56239 32.5454V8.82485C1.56239 7.6821 2.49239 6.7521 3.63514 6.7521H11.4132L8.0997 8.5948H4.06697C3.68491 8.5948 3.37606 8.9043 3.37606 9.28571C3.37606 9.66713 3.68491 9.97663 4.06697 9.97663H5.61458H30.8593H32.7102V16.7709H27.6577C25.3113 16.7709 23.4018 18.6805 23.4018 21.0268V21.3239C23.4018 23.6703 25.3114 25.5798 27.6577 25.5798H32.7102V32.5454ZM34.4374 24.1973H34.092H27.6577C26.0728 24.1973 24.7835 22.9082 24.7835 21.3232V21.026C24.7835 19.4411 26.0727 18.1518 27.6577 18.1518H34.092H34.4374V24.1973ZM29.7739 21.2314C29.7739 22.0743 29.0912 22.7568 28.2484 22.7568C27.4055 22.7568 26.7229 22.0742 26.7229 21.2314C26.7229 20.3885 27.4056 19.7059 28.2484 19.7059C29.0913 19.7058 29.7739 20.3891 29.7739 21.2314Z" fill="#633176"/>
</svg>
