<svg width="49" height="59" viewBox="0 0 49 59" fill="none" xmlns="http://www.w3.org/2000/svg">
<path d="M48.9274 52.5198L41.1164 33.6626C40.9174 33.1824 40.3667 32.954 39.8863 33.1531C39.4059 33.3522 39.1777 33.9029 39.3768 34.3832L46.4381 51.4305L39.9972 49.5643C39.5744 49.4416 39.1228 49.6287 38.9105 50.0144L35.6757 55.8884L28.099 37.5964C36.8439 35.91 43.47 28.2 43.47 18.9703C43.4701 8.51006 34.9602 0 24.5 0C14.0398 0 5.52973 8.51006 5.52973 18.9703C5.52973 23.2071 6.92615 27.1237 9.28263 30.2848L0.0726084 52.5198C-0.0658533 52.8542 -0.000451227 53.2383 0.240947 53.508C0.482219 53.7776 0.856932 53.8851 1.20453 53.7844L8.80335 51.5824L12.6195 58.5127C12.7857 58.8143 13.1024 59 13.444 59C13.4613 59 13.4788 58.9995 13.4962 58.9986C13.8576 58.9785 14.1755 58.7532 14.3141 58.4188L21.612 40.8C21.811 40.3196 21.5829 39.7689 21.1025 39.5699C20.6221 39.3709 20.0713 39.599 19.8724 40.0795L13.324 55.8884L10.0894 50.0144C9.87703 49.6287 9.42524 49.4416 9.0027 49.5643L2.56191 51.4305L10.6458 31.9142C14.1102 35.6199 19.0388 37.9404 24.5 37.9404C25.0638 37.9404 25.6214 37.9142 26.1727 37.8658L34.686 58.4188C34.8245 58.7532 35.1425 58.9785 35.5037 58.9985C35.5213 58.9995 35.5386 59 35.5561 59C35.8977 59 36.2144 58.8143 36.3805 58.5127L40.1967 51.5824L47.7956 53.7844C48.1434 53.8852 48.5178 53.7776 48.7592 53.508C49.0006 53.2383 49.0658 52.8542 48.9274 52.5198ZM7.41271 18.9703C7.41271 9.54833 15.0781 1.88298 24.5 1.88298C33.9219 1.88298 41.5871 9.54833 41.5871 18.9703C41.5871 28.3922 33.9219 36.0574 24.5 36.0574C15.0781 36.0574 7.41271 28.3922 7.41271 18.9703Z" fill="white"/>
<path d="M35.3785 15.4355C35.2701 15.1019 34.9849 14.8561 34.6388 14.798L28.3036 13.7348L25.3349 8.03831C25.1727 7.72712 24.851 7.53191 24.5 7.53191C24.1491 7.53191 23.8273 7.72712 23.6651 8.03831L20.6962 13.7348L14.3612 14.798C14.0151 14.8559 13.73 15.1017 13.6215 15.4355C13.5131 15.7693 13.5992 16.1356 13.8451 16.3861L18.3454 20.9699L17.3989 27.3235C17.3472 27.6706 17.4928 28.0176 17.7768 28.224C18.0605 28.4301 18.4357 28.4613 18.7497 28.3051L24.5 25.4414L30.2501 28.3051C30.383 28.3712 30.5266 28.4039 30.6698 28.4039C30.8652 28.4039 31.0594 28.3431 31.2232 28.2241C31.5072 28.0177 31.6528 27.6707 31.6011 27.3237L30.6547 20.97L35.155 16.3861C35.4008 16.1356 35.4869 15.7693 35.3785 15.4355ZM28.9825 19.9853C28.7756 20.1961 28.6796 20.4916 28.7231 20.7836L29.4726 25.8141L24.9198 23.5469C24.7875 23.4811 24.6438 23.4481 24.5 23.4481C24.3563 23.4481 24.2124 23.481 24.0803 23.5469L19.5275 25.8141L20.277 20.7836C20.3205 20.4916 20.2245 20.1959 20.0176 19.9853L16.4544 16.3559L21.4703 15.5141C21.7615 15.4653 22.0129 15.2826 22.1494 15.0208L24.5 10.5105L26.8506 15.0209C26.9872 15.2828 27.2385 15.4654 27.5297 15.5142L32.5457 16.3561L28.9825 19.9853Z" fill="white"/>
<path d="M38.7619 19.9199C38.2464 19.851 37.7731 20.214 37.705 20.7296C36.8316 27.3209 31.1547 32.2916 24.5 32.2916C17.1546 32.2916 11.1787 26.3158 11.1787 18.9703C11.1787 11.6248 17.1546 5.64894 24.5 5.64894C31.1548 5.64894 36.8316 10.6195 37.705 17.2109C37.7731 17.7265 38.2472 18.0898 38.7619 18.0206C39.2772 17.9523 39.6399 17.4791 39.5715 16.9636C38.5748 9.43975 32.0954 3.76596 24.5 3.76596C16.1163 3.76596 9.29568 10.5865 9.29568 18.9703C9.29568 27.354 16.1163 34.1744 24.5 34.1744C32.0954 34.1744 38.5748 28.5006 39.5716 20.9768C39.6399 20.4615 39.2774 19.9882 38.7619 19.9199Z" fill="white"/>
</svg>
