<svg width="15" height="15" viewBox="0 0 15 15" fill="none" xmlns="http://www.w3.org/2000/svg">
<path d="M14.0607 5.89314C14.0145 5.74483 13.8931 5.6389 13.7457 5.61469L9.35315 4.96093L7.37648 0.799265C7.31002 0.660039 7.17419 0.572266 7.02681 0.572266C6.87943 0.572266 6.7436 0.660039 6.67714 0.802292L4.72648 4.97606L0.333893 5.66009C0.18651 5.6843 0.0651356 5.79023 0.0188978 5.93854C-0.02734 6.08685 0.0131181 6.25029 0.120043 6.35622L3.30756 9.59172L2.57065 14.1741C2.54464 14.3285 2.60532 14.4828 2.7267 14.5736C2.79316 14.6251 2.87408 14.6523 2.955 14.6523C3.01857 14.6523 3.07926 14.6372 3.13706 14.6039L7.0586 12.4277L10.9917 14.5797C11.0495 14.6099 11.1102 14.6251 11.1709 14.6251C11.3847 14.6251 11.561 14.4404 11.561 14.2165C11.561 14.1832 11.5581 14.1529 11.5494 14.1226L10.7894 9.56751L13.9567 6.31385C14.0694 6.20489 14.107 6.04145 14.0607 5.89314ZM10.1016 9.1347C10.0091 9.22852 9.96869 9.36472 9.99181 9.4979L10.6536 13.4719L7.23777 11.6045C7.12507 11.5409 6.98924 11.5439 6.87365 11.6045L3.46939 13.4931L4.10805 9.51303C4.12828 9.37986 4.08782 9.24668 3.99535 9.15286L1.23264 6.34411L5.04437 5.75089C5.17152 5.7297 5.28134 5.64798 5.33624 5.52691L7.0297 1.904L8.74628 5.51783C8.80408 5.6389 8.91389 5.72062 9.04104 5.74181L12.8557 6.31082L10.1016 9.1347Z" fill="#FFAB2E"/>
</svg>
