<svg width="14" height="14" viewBox="0 0 14 14" fill="none" xmlns="http://www.w3.org/2000/svg">
<g clip-path="url(#clip0)">
<path d="M13.9808 5.3679C13.9349 5.22711 13.8142 5.12653 13.6676 5.10355L9.30002 4.48289L7.33459 0.531914C7.26851 0.399736 7.13345 0.316406 6.98691 0.316406C6.84036 0.316406 6.70531 0.399736 6.63922 0.534787L4.69966 4.49725L0.332037 5.14665C0.185492 5.16964 0.0648073 5.27021 0.0188324 5.41101C-0.0271426 5.5518 0.0130855 5.70697 0.119403 5.80754L3.2888 8.87924L2.55607 13.2296C2.53021 13.3762 2.59056 13.5227 2.71124 13.6089C2.77733 13.6578 2.85778 13.6836 2.93824 13.6836C3.00146 13.6836 3.0618 13.6693 3.11927 13.6376L7.01852 11.5716L10.9293 13.6147C10.9867 13.6434 11.0471 13.6578 11.1074 13.6578C11.32 13.6578 11.4953 13.4825 11.4953 13.2698C11.4953 13.2382 11.4925 13.2095 11.4838 13.1808L10.7281 8.85625L13.8774 5.76731C13.9895 5.66387 14.0268 5.5087 13.9808 5.3679ZM10.0442 8.44535C9.95229 8.53443 9.91206 8.66373 9.93505 8.79016L10.5931 12.563L7.19667 10.7901C7.08461 10.7297 6.94955 10.7326 6.83462 10.7901L3.44971 12.5831L4.08474 8.80453C4.10486 8.6781 4.06463 8.55167 3.97268 8.46259L1.22567 5.79604L5.01573 5.23285C5.14216 5.21274 5.25136 5.13516 5.30595 5.02022L6.98978 1.58072L8.6966 5.0116C8.75407 5.12653 8.86326 5.20412 8.98969 5.22423L12.7826 5.76444L10.0442 8.44535Z" fill="#FFAB2E"/>
<path d="M6.9756 1.15156L9.16466 5.4032L13.9887 6.04878L10.5291 9.39996L11.3898 14.0855L7.06256 11.905L2.77087 14.1552L3.55603 9.45635L0.0426222 6.16156L4.85532 5.43805L6.9756 1.15156Z" fill="#FFAB2E"/>
<path d="M13.9808 5.607C13.9348 5.45954 13.8141 5.35421 13.6676 5.33013L9.29998 4.68009L7.33455 0.542085C7.26846 0.40365 7.13341 0.316376 6.98687 0.316376C6.84032 0.316376 6.70527 0.40365 6.63918 0.545095L4.69961 4.69514L0.331995 5.37527C0.18545 5.39935 0.0647653 5.50468 0.0187904 5.65215C-0.0271845 5.79961 0.0130435 5.96212 0.119361 6.06745L3.28876 9.28456L2.55603 13.8409C2.53017 13.9944 2.59051 14.1478 2.7112 14.2381C2.77729 14.2893 2.85774 14.3164 2.9382 14.3164C3.00141 14.3164 3.06176 14.3013 3.11923 14.2682L7.01847 12.1044L10.9292 14.2441C10.9867 14.2742 11.047 14.2893 11.1074 14.2893C11.32 14.2893 11.4953 14.1057 11.4953 13.883C11.4953 13.8499 11.4924 13.8198 11.4838 13.7897L10.7281 9.26049L13.8774 6.02532C13.9894 5.91698 14.0268 5.75447 13.9808 5.607ZM10.0442 8.83013C9.95225 8.92343 9.91202 9.05885 9.93501 9.19127L10.593 13.1427L7.19663 11.2859C7.08456 11.2227 6.94951 11.2257 6.83458 11.2859L3.44967 13.1638L4.0847 9.20632C4.10481 9.0739 4.06458 8.94148 3.97264 8.84819L1.22563 6.05541L5.01569 5.46556C5.14212 5.44449 5.25131 5.36324 5.30591 5.24286L6.98974 1.64054L8.69656 5.23383C8.75403 5.35421 8.86322 5.43546 8.98965 5.45653L12.7826 6.02231L10.0442 8.83013Z" fill="#FFAB2E"/>
</g>
<defs>
<clipPath id="clip0">
<rect width="14" height="14" fill="white"/>
</clipPath>
</defs>
</svg>
