<svg width="26" height="24" viewBox="0 0 26 24" fill="none" xmlns="http://www.w3.org/2000/svg">
<path d="M22.2637 14.8L25.0685 12L22.2637 9.20005C22.2148 9.15118 22.1781 9.0914 22.1567 9.02561C22.1354 8.95983 22.1299 8.88992 22.1408 8.82161L22.7638 4.90686L18.8464 4.2913C18.778 4.2806 18.713 4.2538 18.657 4.2131C18.6009 4.17241 18.5553 4.11899 18.524 4.05724L16.7302 0.521362L13.1996 2.32824C13.1378 2.35987 13.0695 2.37637 13.0001 2.37637C12.9307 2.37637 12.8623 2.35987 12.8006 2.32824L9.26995 0.521362L7.4762 4.05724C7.44487 4.11894 7.39934 4.17232 7.34337 4.21301C7.28739 4.2537 7.22256 4.28053 7.1542 4.2913L3.23683 4.90555L3.85939 8.8203C3.87027 8.88861 3.8648 8.95852 3.84343 9.0243C3.82206 9.09009 3.7854 9.14987 3.73645 9.19874L0.931641 12L3.73645 14.8C3.7854 14.8489 3.82206 14.9087 3.84343 14.9745C3.8648 15.0403 3.87027 15.1102 3.85939 15.1785L3.23639 19.0945L7.15377 19.7101C7.2222 19.7208 7.28712 19.7476 7.34318 19.7883C7.39923 19.829 7.44483 19.8824 7.4762 19.9442L9.26995 23.48L12.8006 21.6732C12.8623 21.6415 12.9307 21.625 13.0001 21.625C13.0695 21.625 13.1378 21.6415 13.1996 21.6732L16.7302 23.48L18.524 19.9442C18.5553 19.8825 18.6008 19.8291 18.6568 19.7884C18.7128 19.7477 18.7776 19.7209 18.846 19.7101L22.7633 19.0945L22.1408 15.1798C22.1297 15.1113 22.135 15.0411 22.1564 14.9751C22.1778 14.9091 22.2146 14.8491 22.2637 14.8ZM16.0626 20.3125H9.93758V19.4375H16.0626V20.3125ZM11.2501 18.5625V17.6875H14.7501V18.5625H11.2501ZM19.3876 10.919C19.4881 11.0919 19.5472 11.2857 19.5603 11.4853C19.5734 11.6849 19.5401 11.8848 19.463 12.0693C19.3859 12.2539 19.2671 12.4181 19.116 12.5491C18.9648 12.6801 18.7854 12.7743 18.5918 12.8243C18.7076 13.1083 18.7193 13.4242 18.6247 13.716C18.5302 14.0078 18.3355 14.2568 18.0751 14.419C18.1885 14.6146 18.2488 14.8364 18.2501 15.0625C18.2501 15.4106 18.1118 15.7445 17.8657 15.9906C17.6195 16.2368 17.2857 16.375 16.9376 16.375H14.9566C13.6375 16.3734 12.3357 16.0744 11.1481 15.5H9.93758V15.9375C9.93758 16.0536 9.89149 16.1649 9.80944 16.2469C9.72739 16.329 9.61611 16.375 9.50008 16.375H6.00008C5.88405 16.375 5.77277 16.329 5.69072 16.2469C5.60867 16.1649 5.56258 16.0536 5.56258 15.9375V8.93755C5.56258 8.82152 5.60867 8.71024 5.69072 8.62819C5.77277 8.54614 5.88405 8.50005 6.00008 8.50005H9.50008C9.61611 8.50005 9.72739 8.54614 9.80944 8.62819C9.89149 8.71024 9.93758 8.82152 9.93758 8.93755V9.37505H10.2255C10.4206 9.37502 10.6101 9.30977 10.7639 9.18968C10.9177 9.06958 11.0269 8.90153 11.0742 8.71224L12.1382 4.45624C12.1619 4.36163 12.2165 4.27765 12.2934 4.21765C12.3703 4.15764 12.465 4.12505 12.5626 4.12505C13.1425 4.12574 13.6985 4.35644 14.1086 4.76652C14.5187 5.17661 14.7494 5.7326 14.7501 6.31255V8.50005H18.6876C18.972 8.49939 19.2489 8.59131 19.4764 8.76193C19.704 8.93256 19.8698 9.1726 19.9489 9.4458C20.0279 9.719 20.0159 10.0105 19.9147 10.2763C19.8134 10.5421 19.6284 10.7677 19.3876 10.919Z" fill="#633176"/>
</svg>
