<svg width="28" height="28" viewBox="0 0 28 28" fill="none" xmlns="http://www.w3.org/2000/svg">
<path d="M7.4375 17.5H10.0625V11.375H7.4375V17.5ZM8.3125 15.75H9.1875V16.625H8.3125V15.75Z" fill="#633176"/>
<path d="M19.6875 11.3751H15.3125C15.1965 11.3751 15.0852 11.329 15.0031 11.2469C14.9211 11.1649 14.875 11.0536 14.875 10.9376V8.31257C14.8747 8.02236 14.7783 7.74042 14.6007 7.51086C14.4231 7.28129 14.1745 7.11705 13.8937 7.04382L12.9233 10.9244C12.8287 11.3031 12.6101 11.6393 12.3025 11.8795C11.9948 12.1197 11.6157 12.2501 11.2254 12.2501H10.9375V16.6251H12.25C12.3177 16.6243 12.3846 16.6393 12.4456 16.6688C13.5359 17.2135 14.7377 17.4981 15.9565 17.5001H17.9375C18.0535 17.5001 18.1648 17.454 18.2469 17.3719C18.3289 17.2899 18.375 17.1786 18.375 17.0626C18.375 16.9465 18.3289 16.8353 18.2469 16.7532C18.1648 16.6712 18.0535 16.6251 17.9375 16.6251H16.625V15.7501H18.375C18.491 15.7501 18.6023 15.704 18.6844 15.6219C18.7664 15.5399 18.8125 15.4286 18.8125 15.3126C18.8125 15.1965 18.7664 15.0853 18.6844 15.0032C18.6023 14.9212 18.491 14.8751 18.375 14.8751H17.0625V14.0001H19.25C19.366 14.0001 19.4773 13.954 19.5594 13.8719C19.6414 13.7899 19.6875 13.6786 19.6875 13.5626C19.6875 13.4465 19.6414 13.3353 19.5594 13.2532C19.4773 13.1712 19.366 13.1251 19.25 13.1251H17.5V12.2501H19.6875C19.8035 12.2501 19.9148 12.204 19.9969 12.1219C20.0789 12.0399 20.125 11.9286 20.125 11.8126C20.125 11.6965 20.0789 11.5853 19.9969 11.5032C19.9148 11.4212 19.8035 11.3751 19.6875 11.3751Z" fill="#633176"/>
<path d="M23.2636 16.8L26.0684 14L23.2636 11.2C23.2147 11.1512 23.178 11.0914 23.1566 11.0256C23.1353 10.9598 23.1298 10.8899 23.1407 10.8216L23.7637 6.90686L19.8463 6.2913C19.7779 6.2806 19.7129 6.2538 19.6569 6.2131C19.6008 6.17241 19.5552 6.11899 19.5239 6.05724L17.7301 2.52136L14.1995 4.32824C14.1377 4.35987 14.0694 4.37637 14 4.37637C13.9306 4.37637 13.8622 4.35987 13.8005 4.32824L10.2699 2.52136L8.47611 6.05724C8.44478 6.11894 8.39925 6.17232 8.34328 6.21301C8.2873 6.2537 8.22247 6.28053 8.15411 6.2913L4.23674 6.90555L4.8593 10.8203C4.87018 10.8886 4.86471 10.9585 4.84334 11.0243C4.82197 11.0901 4.78531 11.1499 4.73636 11.1987L1.93155 14L4.73636 16.8C4.78531 16.8489 4.82197 16.9087 4.84334 16.9745C4.86471 17.0403 4.87018 17.1102 4.8593 17.1785L4.2363 21.0945L8.15367 21.7101C8.22211 21.7208 8.28703 21.7476 8.34309 21.7883C8.39914 21.829 8.44473 21.8824 8.47611 21.9442L10.2699 25.48L13.8005 23.6732C13.8622 23.6415 13.9306 23.625 14 23.625C14.0694 23.625 14.1377 23.6415 14.1995 23.6732L17.7301 25.48L19.5239 21.9442C19.5552 21.8825 19.6007 21.8291 19.6567 21.7884C19.7127 21.7477 19.7775 21.7209 19.8459 21.7101L23.7632 21.0945L23.1407 17.1798C23.1296 17.1113 23.1349 17.0411 23.1563 16.9751C23.1777 16.9091 23.2145 16.8491 23.2636 16.8ZM17.0625 22.3125H10.9375V21.4375H17.0625V22.3125ZM12.25 20.5625V19.6875H15.75V20.5625H12.25ZM20.3875 12.919C20.488 13.0919 20.5471 13.2857 20.5602 13.4853C20.5733 13.6849 20.54 13.8848 20.4629 14.0693C20.3858 14.2539 20.2671 14.4181 20.1159 14.5491C19.9647 14.6801 19.7853 14.7743 19.5917 14.8243C19.7075 15.1083 19.7192 15.4242 19.6246 15.716C19.5301 16.0078 19.3354 16.2568 19.075 16.419C19.1884 16.6146 19.2487 16.8364 19.25 17.0625C19.25 17.4106 19.1117 17.7445 18.8656 17.9906C18.6194 18.2368 18.2856 18.375 17.9375 18.375H15.9565C14.6374 18.3734 13.3356 18.0744 12.1481 17.5H10.9375V17.9375C10.9375 18.0536 10.8914 18.1649 10.8093 18.2469C10.7273 18.329 10.616 18.375 10.5 18.375H6.99999C6.88395 18.375 6.77268 18.329 6.69063 18.2469C6.60858 18.1649 6.56249 18.0536 6.56249 17.9375V10.9375C6.56249 10.8215 6.60858 10.7102 6.69063 10.6282C6.77268 10.5461 6.88395 10.5 6.99999 10.5H10.5C10.616 10.5 10.7273 10.5461 10.8093 10.6282C10.8914 10.7102 10.9375 10.8215 10.9375 10.9375V11.375H11.2254C11.4205 11.375 11.61 11.3098 11.7638 11.1897C11.9176 11.0696 12.0268 10.9015 12.0741 10.7122L13.1381 6.45624C13.1618 6.36163 13.2164 6.27765 13.2933 6.21765C13.3702 6.15764 13.465 6.12505 13.5625 6.12505C14.1424 6.12574 14.6984 6.35644 15.1085 6.76652C15.5186 7.17661 15.7493 7.7326 15.75 8.31255V10.5H19.6875C19.9719 10.4994 20.2488 10.5913 20.4763 10.7619C20.7039 10.9326 20.8697 11.1726 20.9488 11.4458C21.0278 11.719 21.0158 12.0105 20.9146 12.2763C20.8133 12.5421 20.6283 12.7677 20.3875 12.919Z" fill="#633176"/>
</svg>
