<svg width="12" height="12" viewBox="0 0 12 12" fill="none" xmlns="http://www.w3.org/2000/svg">
<path d="M5.42634 11.9668C3.01915 11.6972 1.08996 9.77289 0.815414 7.36571C0.455071 4.21822 2.90148 1.53894 5.96808 1.50462L5.96808 0.0926698C5.96808 0.0142279 6.06613 -0.0274444 6.13232 0.0215818L9.03958 2.15667C9.0886 2.19344 9.0886 2.26453 9.03958 2.3013L6.13232 4.43639C6.06613 4.48542 5.96808 4.44129 5.96808 4.3653L5.96808 2.9558C3.81337 2.99012 2.08765 4.8237 2.23473 7.01517C2.35974 8.90023 3.89672 10.4298 5.78178 10.55C7.7796 10.6774 9.47836 9.25076 9.78233 7.36325C9.83871 7.01272 10.1451 6.75778 10.4981 6.75778C10.9369 6.75778 11.2801 7.14754 11.2114 7.58142C10.7849 10.2705 8.30173 12.2879 5.42634 11.9668Z" fill="#676767"/>
</svg>
