<svg width="15" height="15" viewBox="0 0 15 15" fill="none" xmlns="http://www.w3.org/2000/svg">
<path d="M10.3319 9.7918C11.2908 8.75368 11.8891 7.36364 11.8891 5.83285C11.8891 2.62169 9.27618 0 6.05624 0C2.83629 0 0.223389 2.62169 0.223389 5.83285C0.223389 9.04401 2.83629 11.6657 6.05624 11.6657C7.3671 11.6657 8.57236 11.2346 9.5489 10.5044L13.8861 14.8416C13.9917 14.9472 14.1237 15 14.2556 15C14.3876 15 14.5284 14.9472 14.6251 14.8416C14.8275 14.6393 14.8275 14.305 14.6251 14.0939L10.3319 9.7918ZM1.27911 5.83285C1.27911 3.20234 3.41694 1.05572 6.05624 1.05572C8.68675 1.05572 10.8334 3.19355 10.8334 5.83285C10.8334 8.47215 8.69554 10.61 6.05624 10.61C3.41694 10.61 1.27911 8.46336 1.27911 5.83285Z" fill="#633176"/>
</svg>
