<svg width="35" height="35" viewBox="0 0 35 35" fill="none" xmlns="http://www.w3.org/2000/svg">
<path fill-rule="evenodd" clip-rule="evenodd" d="M35 17.5C35 27.165 27.165 35 17.5 35C7.83502 35 0 27.165 0 17.5C0 7.83502 7.83502 0 17.5 0C27.165 0 35 7.83502 35 17.5ZM18.0725 27.2362H18.0768C23.8142 27.2339 28.4805 22.5664 28.4828 16.8303C28.4839 14.0498 27.4025 11.4354 25.4379 9.46853C23.4732 7.50157 20.8605 6.41787 18.0767 6.41667C12.341 6.41667 7.67287 11.0846 7.67059 16.8221C7.66981 18.6561 8.14898 20.4462 9.05962 22.0244L7.58334 27.4167L13.0997 25.9696C14.6197 26.7986 16.3309 27.2356 18.0725 27.2362Z" fill="#A7A6A6"/>
<path fill-rule="evenodd" clip-rule="evenodd" d="M13.6712 24.2732L13.3553 24.0858L10.0818 24.9445L10.9556 21.7529L10.7499 21.4256C9.88415 20.0486 9.42688 18.457 9.42755 16.8227C9.42945 12.054 13.3095 8.17432 18.0803 8.17432C20.3904 8.17512 22.562 9.0759 24.195 10.7108C25.828 12.3456 26.7267 14.5186 26.7258 16.8297C26.7239 21.5988 22.844 25.4788 18.0769 25.4788H18.0733C16.5213 25.4782 14.9991 25.0613 13.6712 24.2732ZM22.9632 19.0706C23.1445 19.1583 23.267 19.2174 23.3193 19.3047C23.3843 19.4131 23.3843 19.9337 23.1677 20.5412C22.951 21.1485 21.9122 21.7029 21.4126 21.7775C20.9647 21.8445 20.3978 21.8724 19.7749 21.6744C19.3973 21.5546 18.913 21.3947 18.2927 21.1267C15.8551 20.0742 14.2078 17.7117 13.8965 17.2652C13.8747 17.2339 13.8594 17.212 13.8509 17.2007L13.8488 17.1979C13.7112 17.0143 12.7892 15.7841 12.7892 14.5109C12.7892 13.3133 13.3775 12.6855 13.6483 12.3965C13.6669 12.3767 13.684 12.3585 13.6992 12.3418C13.9376 12.0815 14.2193 12.0164 14.3926 12.0164C14.5659 12.0164 14.7394 12.018 14.8909 12.0256C14.9096 12.0266 14.9291 12.0265 14.9492 12.0264C15.1007 12.0255 15.2896 12.0244 15.4759 12.472C15.5476 12.6443 15.6525 12.8996 15.7632 13.169C15.9869 13.7137 16.2341 14.3155 16.2776 14.4026C16.3426 14.5328 16.386 14.6845 16.2993 14.8581C16.2863 14.8842 16.2742 14.9087 16.2627 14.9322C16.1977 15.0651 16.1498 15.1629 16.0393 15.2919C15.9958 15.3426 15.9509 15.3973 15.906 15.452C15.8166 15.5609 15.7271 15.6698 15.6493 15.7474C15.5191 15.8771 15.3836 16.0177 15.5353 16.2781C15.6869 16.5384 16.2088 17.3898 16.9817 18.0793C17.8126 18.8204 18.5348 19.1336 18.9008 19.2924C18.9723 19.3234 19.0302 19.3485 19.0727 19.3698C19.3326 19.5 19.4843 19.4782 19.636 19.3047C19.7877 19.1312 20.286 18.5455 20.4593 18.2852C20.6326 18.025 20.806 18.0683 21.0443 18.1551C21.2827 18.2419 22.561 18.8709 22.821 19.001C22.8718 19.0264 22.9192 19.0494 22.9632 19.0706Z" fill="#A7A6A6"/>
<path fill-rule="evenodd" clip-rule="evenodd" d="M13.6711 24.2731L13.3553 24.0857L10.0817 24.9444L10.9555 21.7527L10.7498 21.4255C9.88406 20.0484 9.42679 18.4569 9.42746 16.8226C9.42935 12.0539 13.3094 8.17419 18.0802 8.17419C20.3903 8.175 22.5619 9.07578 24.1949 10.7106C25.8279 12.3455 26.7266 14.5185 26.7257 16.8296C26.7238 21.5987 22.8439 25.4787 18.0768 25.4787H18.0733C16.5212 25.4781 14.999 25.0611 13.6711 24.2731ZM22.9632 19.0706C23.1445 19.1583 23.267 19.2174 23.3193 19.3047C23.3842 19.4131 23.3842 19.9337 23.1677 20.5412C22.9509 21.1485 21.9122 21.7029 21.4126 21.7775C20.9646 21.8445 20.3978 21.8724 19.7749 21.6744C19.3973 21.5546 18.913 21.3947 18.2926 21.1267C15.8551 20.0742 14.2078 17.7117 13.8965 17.2652C13.8746 17.2339 13.8594 17.212 13.8509 17.2007L13.8488 17.1979C13.7112 17.0143 12.7892 15.7841 12.7892 14.5109C12.7892 13.3133 13.3775 12.6855 13.6483 12.3965C13.6669 12.3767 13.6839 12.3585 13.6992 12.3418C13.9375 12.0815 14.2192 12.0164 14.3926 12.0164C14.5659 12.0164 14.7394 12.018 14.8909 12.0256C14.9096 12.0266 14.929 12.0265 14.9491 12.0264C15.1007 12.0255 15.2896 12.0244 15.4759 12.472C15.5476 12.6443 15.6525 12.8996 15.7632 13.169C15.9869 13.7137 16.2341 14.3155 16.2776 14.4026C16.3426 14.5328 16.3859 14.6845 16.2993 14.8581C16.2862 14.8842 16.2742 14.9087 16.2627 14.9322C16.1976 15.0651 16.1497 15.1629 16.0393 15.2919C15.9958 15.3426 15.9509 15.3973 15.906 15.452C15.8166 15.5609 15.7271 15.6698 15.6492 15.7474C15.5191 15.8771 15.3836 16.0177 15.5352 16.2781C15.6869 16.5384 16.2087 17.3898 16.9817 18.0793C17.8126 18.8204 18.5348 19.1336 18.9008 19.2924C18.9723 19.3234 19.0302 19.3485 19.0727 19.3698C19.3326 19.5 19.4843 19.4782 19.636 19.3047C19.7876 19.1312 20.2859 18.5455 20.4592 18.2852C20.6325 18.025 20.806 18.0683 21.0442 18.1551C21.2826 18.2419 22.561 18.8709 22.821 19.001C22.8717 19.0264 22.9192 19.0494 22.9632 19.0706Z" fill="#A7A6A6"/>
</svg>
