<svg width="26" height="26" viewBox="0 0 26 26" fill="none" xmlns="http://www.w3.org/2000/svg">
<path d="M24.5704 1.43021C23.6172 0.476795 22.4688 0 21.1261 0H4.87594C3.53319 0 2.38478 0.476795 1.43118 1.43021C0.477772 2.3838 0.000976562 3.53215 0.000976562 4.87497V21.1249C0.000976562 22.4676 0.477772 23.6161 1.43118 24.5697C2.38478 25.5233 3.53319 26 4.87594 26H21.1259C22.4686 26 23.6171 25.5233 24.5702 24.5697C25.5238 23.6161 26.0006 22.4677 26.0006 21.1249V4.87497C26.0006 3.53215 25.5238 2.38362 24.5704 1.43021ZM21.2947 19.7355C21.0577 20.2545 20.5245 20.7061 19.6953 21.09C18.8658 21.4739 18.1293 21.6658 17.4859 21.6658C17.3053 21.6658 17.1134 21.6519 16.9103 21.6236C16.7072 21.5952 16.5354 21.5672 16.3943 21.539C16.2533 21.5107 16.0669 21.4601 15.8358 21.3866C15.6043 21.3134 15.4377 21.2568 15.3364 21.2174C15.2346 21.178 15.0485 21.1075 14.7779 21.006C14.507 20.9041 14.3376 20.842 14.2703 20.8199C12.4196 20.1424 10.6109 18.921 8.84499 17.1551C7.07903 15.3887 5.8574 13.5805 5.18027 11.7301C5.15786 11.6623 5.09579 11.493 4.99411 11.2223C4.8926 10.9516 4.82187 10.7653 4.78239 10.6639C4.74314 10.5623 4.68664 10.3958 4.61324 10.1647C4.5399 9.93325 4.48927 9.74721 4.46099 9.60598C4.43265 9.46512 4.40466 9.29312 4.37638 9.08994C4.34816 8.88676 4.33411 8.69467 4.33411 8.51425C4.33411 7.87098 4.52603 7.13468 4.9098 6.30523C5.29351 5.47591 5.74481 4.94273 6.264 4.7057C6.8621 4.45734 7.43198 4.33319 7.97369 4.33319C8.09766 4.33319 8.18808 4.34458 8.24434 4.36711C8.30084 4.38993 8.39398 4.49125 8.52383 4.67185C8.65367 4.85244 8.79465 5.08088 8.94697 5.3574C9.09934 5.63397 9.24886 5.90202 9.39554 6.16146C9.54222 6.42097 9.68332 6.67756 9.8188 6.93167C9.95421 7.18537 10.0388 7.34639 10.0726 7.41386C10.1065 7.4706 10.1799 7.57762 10.2926 7.73574C10.4054 7.89362 10.4902 8.03449 10.5466 8.15876C10.6029 8.28291 10.6312 8.40143 10.6312 8.51425C10.6312 8.68376 10.5154 8.8896 10.2841 9.13203C10.0527 9.3747 9.79876 9.59768 9.52224 9.80086C9.24572 10.004 8.99191 10.2213 8.76056 10.4527C8.5294 10.6838 8.41361 10.8729 8.41361 11.0196C8.41361 11.0986 8.43335 11.1916 8.4729 11.2988C8.51238 11.4063 8.54908 11.4937 8.58294 11.5613C8.61679 11.629 8.6705 11.7249 8.74373 11.8492C8.81707 11.9735 8.86515 12.0524 8.88756 12.0863C9.50813 13.2035 10.222 14.1655 11.0287 14.9725C11.8357 15.7796 12.7976 16.4931 13.915 17.1138C13.9486 17.1366 14.0277 17.1844 14.1523 17.2579C14.2763 17.3309 14.3725 17.3845 14.4401 17.4184C14.5078 17.4522 14.5951 17.489 14.7024 17.5282C14.8098 17.5676 14.9029 17.5874 14.9822 17.5874C15.1622 17.5874 15.4106 17.4014 15.7269 17.029C16.0427 16.6564 16.3646 16.2869 16.6918 15.9201C17.0189 15.5536 17.2838 15.3702 17.4874 15.3702C17.6001 15.3702 17.7184 15.3983 17.843 15.4546C17.9672 15.511 18.108 15.5959 18.2659 15.7086C18.4241 15.8219 18.5313 15.8949 18.5877 15.9292L19.4844 16.4196C20.0826 16.7357 20.5819 17.0149 20.9826 17.2576C21.3834 17.5003 21.6007 17.6666 21.6346 17.7567C21.657 17.8131 21.668 17.9037 21.668 18.0278C21.6676 18.569 21.5434 19.1389 21.2947 19.7355Z" fill="#633176"/>
</svg>
