<svg width="59" height="59" viewBox="0 0 59 59" fill="none" xmlns="http://www.w3.org/2000/svg">
<path d="M46.5956 49.5508C45.0089 49.5251 43.9344 48.6681 43.9344 48.041C43.9344 47.734 44.2032 47.3118 44.5228 47.3118C44.945 47.3118 45.2903 48.2071 46.5952 48.3098V45.3033C45.4437 44.8937 44.1645 44.4332 44.1645 42.7956C44.1645 41.1837 45.3798 40.544 46.5952 40.4162V40.0448C46.5952 39.8913 46.7491 39.7505 46.9666 39.7505C47.1583 39.7505 47.3501 39.8913 47.3501 40.0448V40.3905C48.2202 40.4162 49.4486 40.6845 49.4486 41.3115C49.4486 41.5546 49.2694 42.0407 48.8855 42.0407C48.5785 42.0407 48.2458 41.6311 47.3501 41.5676V44.1645C48.4632 44.5741 49.6786 45.1368 49.6786 46.877C49.6786 48.4502 48.732 49.3203 47.3501 49.5121V49.9473C47.3501 50.1008 47.1583 50.2413 46.9666 50.2413C46.7491 50.2413 46.5952 50.1008 46.5952 49.9473V49.5508H46.5956ZM46.6722 43.9214V41.5929C45.956 41.6824 45.4442 42.0025 45.4442 42.6678C45.4437 43.397 45.9943 43.6657 46.6722 43.9214ZM47.2735 45.5846V48.2841C47.9645 48.1563 48.3993 47.7471 48.3993 47.0174C48.3993 46.2117 47.9006 45.8534 47.2735 45.5846Z" fill="white"/>
<path d="M27.7823 14.1815C28.2594 14.1815 28.6465 13.7948 28.6465 13.3172V11.0463C28.6465 10.5687 28.2594 10.182 27.7823 10.182C27.3047 10.182 26.918 10.5687 26.918 11.0463V13.3172C26.918 13.7948 27.3047 14.1815 27.7823 14.1815Z" fill="white"/>
<path d="M26.918 45.8322V48.1036C26.918 48.5807 27.3047 48.9679 27.7823 48.9679C28.2594 48.9679 28.6465 48.5807 28.6465 48.1036V45.8322C28.6465 45.3546 28.2594 44.968 27.7823 44.968C27.3047 44.968 26.918 45.3546 26.918 45.8322Z" fill="white"/>
<path d="M44.0398 28.7105C43.5622 28.7105 43.1755 29.0976 43.1755 29.5747C43.1755 30.0523 43.5622 30.439 44.0398 30.439H46.3107C46.7883 30.439 47.175 30.0523 47.175 29.5747C47.175 29.0976 46.7883 28.7105 46.3107 28.7105H44.0398Z" fill="white"/>
<path d="M9.25342 28.7105C8.77628 28.7105 8.38916 29.0976 8.38916 29.5747C8.38916 30.0523 8.77628 30.439 9.25342 30.439H11.5248C12.0019 30.439 12.3891 30.0523 12.3891 29.5747C12.3891 29.0976 12.0019 28.7105 11.5248 28.7105H9.25342Z" fill="white"/>
<path d="M39.4696 16.6649L38.667 17.4679C38.3294 17.8055 38.3294 18.3529 38.667 18.69C38.8358 18.8588 39.0568 18.9435 39.2778 18.9435C39.4993 18.9435 39.7203 18.8588 39.8891 18.69L40.6921 17.8874C41.0297 17.5498 41.0297 17.0025 40.6921 16.6649C40.3545 16.3277 39.8072 16.3277 39.4696 16.6649Z" fill="white"/>
<path d="M15.6755 40.4594L14.8724 41.2625C14.5348 41.6001 14.5348 42.147 14.8724 42.4846C15.0408 42.6534 15.2622 42.7376 15.4833 42.7376C15.7047 42.7376 15.9257 42.6534 16.0945 42.4846L16.8976 41.6815C17.2352 41.3439 17.2352 40.797 16.8976 40.4594C16.56 40.1218 16.0131 40.1218 15.6755 40.4594Z" fill="white"/>
<path d="M16.8976 17.4679L16.0945 16.6649C15.7569 16.3277 15.2096 16.3273 14.8724 16.6649C14.5348 17.0025 14.5348 17.5498 14.8724 17.8874L15.6755 18.69C15.8443 18.8588 16.0653 18.9434 16.2868 18.9434C16.5078 18.9434 16.7288 18.8588 16.8976 18.69C17.2352 18.3524 17.2352 17.8055 16.8976 17.4679Z" fill="white"/>
<path d="M46.8045 33.03C40.08 33.03 34.609 38.5009 34.609 45.2254C34.609 51.95 40.08 57.4209 46.8045 57.4209C53.5291 57.4209 59 51.9504 59 45.2254C59 38.5009 53.5291 33.03 46.8045 33.03ZM46.8045 55.6924C41.0329 55.6924 36.3375 50.9971 36.3375 45.2254C36.3375 39.4538 41.0329 34.7585 46.8045 34.7585C52.5761 34.7585 57.2715 39.4538 57.2715 45.2254C57.2715 50.9971 52.5761 55.6924 46.8045 55.6924Z" fill="white"/>
<path d="M46.8045 36.0945C41.7693 36.0945 37.6731 40.1907 37.6731 45.2254C37.6731 50.2606 41.7693 54.3569 46.8045 54.3569C51.8393 54.3569 55.9355 50.2606 55.9355 45.2254C55.9355 40.1907 51.8393 36.0945 46.8045 36.0945ZM46.8045 52.6283C42.7227 52.6283 39.4016 49.3077 39.4016 45.2259C39.4016 41.1436 42.7227 37.823 46.8045 37.823C50.8863 37.823 54.207 41.1436 54.207 45.2259C54.207 49.3073 50.8863 52.6283 46.8045 52.6283Z" fill="white"/>
<path d="M50.4794 31.0251C50.4871 31.0251 50.4943 31.0251 50.5019 31.0251C50.9692 31.0251 51.3536 30.6528 51.3653 30.1829C51.3707 29.9816 51.3729 29.7773 51.3729 29.5747C51.3729 16.6019 40.8191 6.048 27.8462 6.048C14.8733 6.048 4.31949 16.6019 4.31949 29.5747C4.31949 42.5476 14.8733 53.1014 27.8462 53.1014C29.5495 53.1014 31.2497 52.9182 32.8994 52.5572C33.3658 52.455 33.661 51.9941 33.5589 51.5278C33.4567 51.0614 32.9962 50.7661 32.5294 50.8683C31.0012 51.2032 29.4253 51.3729 27.8462 51.3729C15.8267 51.3729 6.048 41.5942 6.048 29.5747C6.048 17.5552 15.8267 7.77652 27.8462 7.77652C39.8657 7.77652 49.6444 17.5552 49.6444 29.5747C49.6444 29.7633 49.6422 29.9515 49.6372 30.1392C49.6255 30.6159 50.0023 31.0129 50.4794 31.0251Z" fill="white"/>
<path d="M34.9849 54.7053C32.6734 55.3602 30.272 55.6924 27.8462 55.6924C20.87 55.6924 14.3111 52.9759 9.37855 48.0428C4.44508 43.1098 1.72852 36.5509 1.72852 29.5747C1.72852 22.5985 4.44508 16.0396 9.3781 11.1066C14.3111 6.17359 20.87 3.45703 27.8462 3.45703C34.8224 3.45703 41.3813 6.17359 46.3143 11.1066C51.2473 16.0396 53.9643 22.5985 53.9643 29.5747C53.9643 30.3237 53.9319 31.0791 53.8689 31.8195C53.828 32.2953 54.1809 32.7135 54.6562 32.754C55.1329 32.7941 55.5506 32.4421 55.5911 31.9667C55.6587 31.1772 55.6929 30.3724 55.6929 29.5747C55.6929 22.1367 52.7962 15.1439 47.5369 9.8845C42.2775 4.62513 35.2842 1.72852 27.8462 1.72852C20.4082 1.72852 13.4154 4.62513 8.15598 9.8845C2.89661 15.1439 0 22.1367 0 29.5747C0 37.0127 2.89661 44.0056 8.15598 49.2649C13.4154 54.5248 20.4082 57.4209 27.8462 57.4209C30.4313 57.4209 32.9917 57.0667 35.4562 56.3681C35.9153 56.238 36.1822 55.7599 36.0522 55.3008C35.9221 54.8417 35.4445 54.5752 34.9849 54.7053Z" fill="white"/>
<path d="M34.1994 37.2144C34.3682 37.3828 34.5892 37.4674 34.8107 37.4674C35.0317 37.4674 35.2527 37.3828 35.4215 37.2144C35.7591 36.8768 35.7591 36.3294 35.4215 35.9918L30.6721 31.2425C30.9566 30.7514 31.1205 30.182 31.1205 29.5747C31.1205 28.033 30.0694 26.7326 28.6465 26.3509V17.2762C28.6465 16.7986 28.2594 16.4119 27.7823 16.4119C27.3047 16.4119 26.918 16.7986 26.918 17.2762V26.3509C25.4947 26.7326 24.4441 28.033 24.4441 29.5747C24.4441 31.4153 25.9417 32.9129 27.7823 32.9129C28.3895 32.9129 28.9589 32.7495 29.45 32.465L34.1994 37.2144ZM27.7823 31.1844C26.8946 31.1844 26.1726 30.4624 26.1726 29.5747C26.1726 28.6871 26.8946 27.965 27.7823 27.965C28.67 27.965 29.392 28.6871 29.392 29.5747C29.392 30.4624 28.67 31.1844 27.7823 31.1844Z" fill="white"/>
</svg>
