<svg width="22" height="22" viewBox="0 0 22 22" fill="none" xmlns="http://www.w3.org/2000/svg">
<path d="M18.7794 3.22192C14.4901 -1.06746 7.51075 -1.06746 3.22145 3.22192C1.71651 4.72685 0.687073 6.61752 0.24433 8.6896C-0.186697 10.7072 -0.0455086 12.7976 0.652597 14.7346C0.736474 14.9672 0.993106 15.0878 1.22563 15.004C1.45831 14.9201 1.5789 14.6635 1.49503 14.4309C0.853634 12.6512 0.723938 10.7306 1.12004 8.87661C1.52652 6.974 2.47215 5.2375 3.85463 3.85502C7.79484 -0.0851882 14.206 -0.0851882 18.1462 3.85502C20.0226 5.73151 21.073 8.22582 21.1039 10.8786C21.1347 13.5266 20.1478 16.0408 18.3253 17.958C18.3037 17.9807 18.2824 18.0036 18.2611 18.0264C18.2233 18.0668 18.1856 18.1072 18.1462 18.1466C14.206 22.0868 7.79484 22.0868 3.85463 18.1466C3.83366 18.1256 3.81321 18.1043 3.79299 18.083C3.79195 18.0416 3.79105 18.0009 3.79105 17.9607C3.79105 17.8706 3.79277 17.7808 3.79605 17.6913C3.79717 17.6614 3.79941 17.6318 3.8009 17.6019C3.80381 17.5425 3.80657 17.483 3.8109 17.4238C3.81351 17.3885 3.81732 17.3536 3.82045 17.3184C3.82515 17.2651 3.82956 17.2117 3.83538 17.1587C3.83948 17.1212 3.84485 17.084 3.84956 17.0467C3.8559 16.9964 3.86194 16.9458 3.86941 16.8957C3.87508 16.8575 3.88179 16.8196 3.88806 16.7817C3.89605 16.7328 3.90381 16.6839 3.91284 16.6353C3.91993 16.5969 3.92806 16.5588 3.93582 16.5206C3.94545 16.4729 3.95492 16.4252 3.96552 16.3778C3.9741 16.3394 3.98366 16.3012 3.99283 16.263C4.00403 16.2163 4.01515 16.1697 4.02724 16.1234C4.03731 16.085 4.0482 16.047 4.0588 16.0089C4.07156 15.9632 4.08425 15.9174 4.0979 15.8721C4.10932 15.834 4.12156 15.7963 4.13365 15.7585C4.14798 15.7136 4.1623 15.6687 4.17745 15.6242C4.19029 15.5867 4.20372 15.5494 4.21715 15.5121C4.23305 15.4679 4.24902 15.4237 4.26573 15.3799C4.27991 15.3428 4.29461 15.306 4.30939 15.2693C4.32678 15.2259 4.34431 15.1825 4.36252 15.1396C4.37804 15.103 4.39401 15.0667 4.41013 15.0305C4.42901 14.9879 4.44811 14.9454 4.46781 14.9032C4.4846 14.8673 4.50177 14.8317 4.51916 14.7961C4.5396 14.7542 4.56027 14.7124 4.58147 14.671C4.59945 14.6359 4.61773 14.601 4.63632 14.5662C4.65825 14.525 4.68057 14.484 4.70333 14.4432C4.72251 14.4088 4.74191 14.3747 4.76161 14.3407C4.78504 14.3003 4.80885 14.2602 4.8331 14.2202C4.85347 14.1866 4.87407 14.1532 4.89496 14.1199C4.91989 14.0804 4.94518 14.041 4.97085 14.002C4.99235 13.9692 5.01399 13.9366 5.036 13.9042C5.06234 13.8654 5.08928 13.8271 5.11645 13.7888C5.13906 13.7569 5.16167 13.7251 5.1848 13.6937C5.21263 13.6558 5.24107 13.6183 5.26965 13.581C5.2933 13.5501 5.31688 13.5192 5.34106 13.4887C5.37039 13.4516 5.40039 13.4149 5.43046 13.3784C5.45501 13.3486 5.47956 13.3187 5.50464 13.2893C5.53553 13.253 5.5671 13.2173 5.59874 13.1816C5.62426 13.1528 5.64963 13.1239 5.6756 13.0955C5.70799 13.0602 5.74105 13.0255 5.77418 12.9908C5.8006 12.963 5.82686 12.9352 5.85373 12.9078C5.88768 12.8733 5.92238 12.8396 5.95701 12.8057C5.98417 12.7792 6.01111 12.7524 6.03872 12.7263C6.07439 12.6926 6.11088 12.6597 6.14722 12.6267C6.17498 12.6015 6.20237 12.5761 6.2305 12.5513C6.26804 12.5183 6.30655 12.4862 6.34483 12.4539C6.37289 12.4302 6.40065 12.4062 6.42908 12.3829C6.4687 12.3505 6.5093 12.3191 6.54974 12.2874C6.57795 12.2654 6.60571 12.2429 6.63422 12.2212C6.67683 12.1889 6.72033 12.1577 6.76377 12.1264C6.79115 12.1066 6.81802 12.0863 6.84578 12.0668C6.89369 12.0331 6.94271 12.0007 6.99159 11.9681C7.0157 11.952 7.03928 11.9354 7.06353 11.9195C7.12726 11.8781 7.19211 11.8381 7.2574 11.7985C7.26755 11.7924 7.2774 11.7858 7.28762 11.7797C7.36314 11.7345 7.43971 11.6906 7.51717 11.6479C7.54366 11.6334 7.5709 11.6197 7.59769 11.6055C7.6491 11.578 7.70037 11.5503 7.75268 11.524C7.78619 11.5072 7.82051 11.4914 7.85432 11.475C7.897 11.4543 7.93954 11.4334 7.98275 11.4135C8.79428 12.1887 9.87685 12.6276 11.0005 12.6276C12.1242 12.6276 13.2069 12.1886 14.0184 11.4134C15.6026 12.1466 16.8992 13.4621 17.6031 15.0619C17.7026 15.2881 17.9667 15.391 18.1932 15.2914C18.4196 15.1918 18.5223 14.9276 18.4227 14.7013C17.6527 12.9514 16.3123 11.553 14.6155 10.7088C15.1078 9.98671 15.3742 9.13399 15.3742 8.25402C15.3742 5.84241 13.4121 3.8804 11.0005 3.8804C10.7533 3.8804 10.5528 4.08091 10.5528 4.32814C10.5528 4.57537 10.7533 4.77588 11.0005 4.77588C12.9184 4.77588 14.4787 6.33619 14.4787 8.25402C14.4787 9.1116 14.16 9.93739 13.5813 10.5791C13.5812 10.5792 13.5812 10.5792 13.5811 10.5793C12.9204 11.312 11.9798 11.7322 11.0005 11.7322C10.0211 11.7322 9.08046 11.312 8.41982 10.5793C8.41974 10.5792 8.41959 10.5791 8.41944 10.579C7.84089 9.93709 7.52224 9.11153 7.52224 8.2541C7.52224 7.31802 7.88872 6.43984 8.55421 5.78151C8.73003 5.60756 8.73152 5.32407 8.55757 5.14833C8.3837 4.97244 8.1002 4.9711 7.92439 5.1449C7.08763 5.97248 6.62676 7.07668 6.62676 8.2538C6.62676 9.13287 6.89242 9.985 7.38389 10.7068C7.37949 10.7089 7.37523 10.7113 7.3709 10.7136C7.33598 10.731 7.30188 10.7495 7.26725 10.7674C7.21419 10.7948 7.16099 10.8221 7.10868 10.8507C7.07166 10.8709 7.03547 10.8921 6.99883 10.9127C6.94995 10.9404 6.901 10.9679 6.85279 10.9965C6.81541 11.0188 6.77862 11.0417 6.7416 11.0645C6.69534 11.093 6.64907 11.1214 6.60347 11.1508C6.56624 11.1747 6.52967 11.1994 6.49288 11.2238C6.44863 11.2533 6.40445 11.2829 6.36087 11.3132C6.32423 11.3387 6.28804 11.3648 6.25185 11.3908C6.20931 11.4215 6.16692 11.4523 6.12506 11.4837C6.08917 11.5107 6.05372 11.538 6.01835 11.5655C5.9773 11.5973 5.93656 11.6294 5.89626 11.662C5.86134 11.6902 5.82671 11.7188 5.79224 11.7475C5.75261 11.7807 5.71329 11.8142 5.67433 11.8481C5.64053 11.8774 5.60695 11.9069 5.57367 11.9369C5.53523 11.9714 5.49732 12.0063 5.45964 12.0416C5.4271 12.0719 5.39464 12.1024 5.36255 12.1333C5.32532 12.1693 5.28868 12.2058 5.25211 12.2424C5.22092 12.2737 5.18973 12.3049 5.15913 12.3366C5.12294 12.3742 5.08742 12.4124 5.05197 12.4506C5.02234 12.4825 4.99249 12.5143 4.96339 12.5468C4.92795 12.5862 4.89347 12.6264 4.85884 12.6665C4.83101 12.6987 4.80295 12.7306 4.77564 12.7632C4.74049 12.8053 4.70646 12.8481 4.67221 12.8908C4.64676 12.9226 4.62079 12.9539 4.59579 12.9861C4.55983 13.0323 4.52505 13.0795 4.49013 13.1265C4.46819 13.1561 4.44565 13.1851 4.42416 13.2149C4.37998 13.2761 4.33722 13.3382 4.29484 13.4006C4.28372 13.417 4.27193 13.433 4.26088 13.4495C4.20812 13.5283 4.15686 13.608 4.10693 13.6886C4.0897 13.7164 4.0735 13.7448 4.05664 13.7728C4.02432 13.8265 3.99186 13.8801 3.96075 13.9345C3.94134 13.9684 3.92299 14.003 3.90411 14.0372C3.87687 14.0865 3.84948 14.1356 3.82336 14.1854C3.80396 14.2224 3.7856 14.2597 3.76672 14.297C3.7424 14.345 3.71799 14.393 3.69464 14.4416C3.67606 14.4803 3.65837 14.5194 3.64039 14.5582C3.6183 14.6062 3.59613 14.6541 3.57494 14.7026C3.55748 14.7425 3.54076 14.7828 3.52397 14.823C3.50375 14.8713 3.48368 14.9196 3.46442 14.9682C3.44823 15.0091 3.43271 15.0502 3.41719 15.0914C3.39883 15.1402 3.38069 15.189 3.36323 15.2382C3.34846 15.2799 3.33413 15.3219 3.31995 15.3639C3.30331 15.4132 3.28712 15.4627 3.27145 15.5125C3.25809 15.5548 3.24518 15.5972 3.23249 15.6398C3.21757 15.69 3.20316 15.7404 3.18921 15.791C3.17742 15.8336 3.16585 15.8764 3.15473 15.9194C3.14153 15.9705 3.12899 16.0218 3.11675 16.0733C3.10653 16.1163 3.09638 16.1592 3.0869 16.2024C3.07541 16.2545 3.06474 16.307 3.05429 16.3595C3.04571 16.4025 3.03698 16.4455 3.02907 16.4887C3.01929 16.5423 3.01049 16.5961 3.00175 16.6501C2.99489 16.6926 2.98765 16.7351 2.98146 16.7778C2.97332 16.8335 2.96646 16.8894 2.95944 16.9454C2.95429 16.9869 2.94862 17.0283 2.94407 17.0699C2.93765 17.1286 2.93273 17.1876 2.92758 17.2466C2.92415 17.286 2.92004 17.3251 2.91721 17.3647C2.91243 17.4306 2.9093 17.4968 2.90609 17.563C2.90452 17.596 2.90206 17.6286 2.90086 17.6616C2.89728 17.761 2.89527 17.8608 2.89527 17.9609C2.89527 18.0691 2.89892 18.1713 2.90333 18.2842C2.90437 18.3103 2.90803 18.3357 2.91325 18.3605C2.9137 18.3624 2.91392 18.3644 2.91437 18.3663C2.91989 18.3907 2.92765 18.4141 2.93698 18.4368C2.93788 18.4391 2.9387 18.4413 2.93967 18.4435C2.94929 18.4659 2.96079 18.4873 2.97377 18.5076C2.97541 18.5101 2.97698 18.5126 2.97862 18.5151C2.99198 18.535 3.00683 18.5538 3.02302 18.5712C3.02422 18.5725 3.02504 18.5741 3.02623 18.5753L3.08533 18.6382C3.12996 18.686 3.17458 18.7336 3.22115 18.7801C5.36584 20.9248 8.18296 21.9971 11.0002 21.9971C13.8174 21.9971 16.6345 20.9248 18.7792 18.7801C18.8257 18.7336 18.8704 18.6859 18.915 18.6382L18.9741 18.5753C20.9583 16.488 22.0325 13.7511 21.999 10.8685C21.9657 7.98023 20.8221 5.26467 18.7794 3.22192Z" fill="#633176"/>
</svg>
